PathFileType	4	(X/Y/Z)	C:/Users/opensim2020/Desktop/walking_exp_matlab/subject06_walking21_straight_02.trc																																																																																																																																		
DataRate	CameraRate	NumFrames	NumMarkers	Units	OrigDataRate	OrigDataStartFrame	OrigNumFrames																																																																																																																														
100	100	7	44	mm	100	1261	172																																																																																																																														
Frame#	Time	LFHD			RFHD			LBHD			RBHD			C7			T10			CLAV			STRN			RBAK			LSHO			LUPA			LELB			LFRM			LWRA			LWRB			LFIN			RSHO			RUPA			RELB			RFRM			RWRA			RWRB			RFIN			LASI			RASI			LPSI			RPSI			LTHI			LKNE			LTIB			LANK			LHEE			LTOE			RTHI			RKNE			RTIB			RANK			RHEE			RTOE			*39			*40			*41			*42			*43		
		X1	Y1	Z1	X2	Y2	Z2	X3	Y3	Z3	X4	Y4	Z4	X5	Y5	Z5	X6	Y6	Z6	X7	Y7	Z7	X8	Y8	Z8	X9	Y9	Z9	X10	Y10	Z10	X11	Y11	Z11	X12	Y12	Z12	X13	Y13	Z13	X14	Y14	Z14	X15	Y15	Z15	X16	Y16	Z16	X17	Y17	Z17	X18	Y18	Z18	X19	Y19	Z19	X20	Y20	Z20	X21	Y21	Z21	X22	Y22	Z22	X23	Y23	Z23	X24	Y24	Z24	X25	Y25	Z25	X26	Y26	Z26	X27	Y27	Z27	X28	Y28	Z28	X29	Y29	Z29	X30	Y30	Z30	X31	Y31	Z31	X32	Y32	Z32	X33	Y33	Z33	X34	Y34	Z34	X35	Y35	Z35	X36	Y36	Z36	X37	Y37	Z37	X38	Y38	Z38	X39	Y39	Z39	X40	Y40	Z40	X41	Y41	Z41	X42	Y42	Z42	X43	Y43	Z43	X44	Y44	Z44
																																																																																																																																					
1	0	-1440.0802	1671.65027	-1460.55811	-1439.0321	1653.82593	-1329.68372	-1572.3739	1614.76221	-1462.26904	-1570.21655	1602.76086	-1334.29736	-1570.27332	1453.13904	-1405.02356	-1598.51843	1124.45337	-1403.12646	-1458.20776	1379.84485	-1414.5929	-1414.33777	1206.76465	-1427.53674	-1631.99805	1279.70251	-1323.3938	-1535.13611	1410.21301	-1569.31665	-1534.099	1210.14709	-1642.73572	-1525.90955	1098.83496	-1658.00452	-1431.74915	988.78479	-1693.10291	-1306.84143	945.84082	-1670.26538	-1353.40967	897.96454	-1693.32715	-1269.69641	867.48383	-1708.71948	-1491.81348	1408.61511	-1249.08899	-1531.47705	1209.95728	-1162.66492	-1529.40601	1087.6106	-1152.33057	-1518.99866	967.55255	-1135.78357	-1466.80566	825.14844	-1167.89722	-1520.08215	829.74817	-1126.1405	-1488.21057	750.86566	-1126.54382	-1429.12366	966.77936	-1525.81665	-1409.23621	974.80286	-1306.71313	-1584.91943	989.74945	-1485.20105	-1563.46118	995.08429	-1318.4707	-1492.31738	644.81018	-1586.3656	-1480.24817	481.39481	-1575.80176	-1674.07043	330.46396	-1547.06238	-1802.82007	224.73709	-1496.30481	-1826.021	246.21098	-1443.83264	-1762.71265	81.27009	-1506.52319	-1425.18408	637.24402	-1262.24231	-1401.21497	517.16077	-1299.23181	-1430.8031	250.95351	-1323.75708	-1434.22583	71.33454	-1386.31226	-1469.63745	48.67715	-1435.50879	-1281.64954	41.03098	-1381.65771	-1540.58545	1704.81604	-1398.39758	NaN	NaN	NaN	NaN	NaN	NaN	NaN	NaN	NaN	NaN	NaN	NaN
2	0.01	-1429.09985	1672.88049	-1461.64697	-1428.15222	1655.20166	-1330.6759	-1561.27625	1615.71387	-1463.4021	-1559.08069	1603.80286	-1335.38892	-1558.9834	1454.39978	-1406.06116	-1587.32227	1125.59656	-1403.81689	-1446.97302	1380.97632	-1415.4707	-1403.3241	1207.80798	-1428.12207	-1621.51416	1281.3833	-1324.91321	-1523.64722	1410.9436	-1570.41455	-1524.39331	1210.28125	-1643.02686	-1516.82483	1098.8302	-1657.87866	-1425.17639	986.54193	-1692.77625	-1301.17249	940.23267	-1669.23059	-1349.03149	893.5946	-1692.30664	-1266.14307	860.68683	-1707.29346	-1480.59351	1409.85059	-1249.93591	-1518.74402	1210.99011	-1163.23389	-1515.88354	1088.73315	-1152.52075	-1502.99036	968.79797	-1136.34497	-1448.0741	827.77057	-1169.32935	-1500.99939	830.88306	-1127.27698	-1467.27771	753.03888	-1127.87878	-1417.3916	968.1026	-1526.45215	-1398.49524	975.79803	-1307.23694	-1573.61255	990.63953	-1486.27051	-1552.55273	995.96832	-1319.18787	-1473.33691	646.20258	-1586.65332	-1457.40674	483.24124	-1575.71533	-1650.01648	331.75156	-1548.75574	-1779.01978	225.27753	-1499.28833	-1804.32349	246.843	-1447.79114	-1734.88342	83.4128	-1507.29724	-1417.58337	637.87665	-1263.05554	-1396.07349	517.20154	-1299.52039	-1429.24658	251.16927	-1323.96936	-1434.23022	71.49609	-1386.46582	-1469.71021	48.7055	-1435.63831	-1281.63623	40.84277	-1381.74927	-1529.72705	1705.93079	-1399.60254	NaN	NaN	NaN	NaN	NaN	NaN	NaN	NaN	NaN	NaN	NaN	NaN
3	0.02	-1418.05823	1673.93665	-1462.80298	-1417.1991	1656.53442	-1331.81885	-1550.1731	1616.62085	-1464.62329	-1548.13635	1604.95276	-1336.54333	-1547.84863	1455.55957	-1407.01465	-1576.2019	1126.66577	-1404.49475	-1435.82849	1381.98694	-1416.3645	-1392.36584	1208.83105	-1428.80237	-1610.66174	1282.54968	-1325.68469	-1512.2627	1411.64343	-1571.48914	-1514.60962	1210.55615	-1643.31177	-1507.77686	1098.9115	-1657.76965	-1418.79163	984.05652	-1692.15271	-1296.11926	934.2392	-1668.21277	-1345.29736	888.96387	-1691.32288	-1263.40076	853.60333	-1705.94348	-1469.49121	1411.01062	-1250.79541	-1506.24548	1211.93982	-1163.72449	-1501.60718	1089.63086	-1153.34094	-1486.92627	970.10059	-1136.96216	-1429.02161	830.58032	-1170.60791	-1481.92297	832.37152	-1128.31482	-1446.1123	755.49426	-1129.35767	-1405.6521	969.61938	-1526.96692	-1387.79871	976.87823	-1307.72192	-1561.65747	990.99506	-1486.43274	-1541.76221	996.83789	-1319.96338	-1454.34277	647.85046	-1586.83826	-1434.72864	485.32217	-1575.38159	-1625.5437	331.92667	-1550.521	-1754.64502	224.81497	-1502.80774	-1781.54187	245.59358	-1451.4082	-1706.21423	84.20973	-1508.55103	-1410.76355	637.90479	-1263.87683	-1391.23596	517.1792	-1299.74084	-1427.44556	251.45441	-1324.17029	-1434.16309	71.62528	-1386.59326	-1469.76208	48.82858	-1435.77136	-1281.92871	40.48848	-1381.36914	-1518.79395	1706.95483	-1400.88159	NaN	NaN	NaN	NaN	NaN	NaN	NaN	NaN	NaN	NaN	NaN	NaN
4	0.03	-1406.94299	1674.84021	-1463.9469	-1406.19031	1657.55432	-1332.91003	-1539.01453	1617.42603	-1465.79541	-1537.03809	1605.91138	-1337.69885	-1536.74597	1456.58337	-1407.97754	-1565.11572	1127.68408	-1405.11646	-1424.81738	1382.82507	-1417.14307	-1381.47583	1209.71045	-1429.4408	-1599.82629	1283.61768	-1326.4989	-1501.00232	1412.36072	-1572.49939	-1504.63538	1210.93921	-1643.61096	-1498.87109	1099.07629	-1657.63757	-1412.81018	981.55481	-1691.52698	-1291.63281	927.93793	-1667.1615	-1342.22034	884.20532	-1690.40759	-1261.50244	846.29907	-1704.80078	-1458.52087	1412.0907	-1251.65454	-1493.94336	1212.91821	-1164.34399	-1487.93811	1090.65222	-1153.69275	-1470.81738	971.4502	-1137.55676	-1409.08167	833.78223	-1172.4071	-1462.53235	833.89758	-1129.40405	-1424.74707	758.00629	-1130.74585	-1393.84448	971.10773	-1527.41003	-1377.11157	977.8443	-1308.16211	-1550.92554	992.38751	-1488.08508	-1531.07898	997.73328	-1320.77246	-1435.60693	649.61121	-1586.85144	-1412.24475	487.49576	-1574.67468	-1600.81482	331.15326	-1552.28369	-1729.34741	222.51418	-1505.91602	-1757.8031	242.73805	-1454.88049	-1676.31165	83.65285	-1509.95862	-1403.77307	638.74274	-1264.63879	-1386.33337	517.08032	-1300.01086	-1425.58386	251.59949	-1324.33301	-1434.04871	71.74119	-1386.72766	-1469.81165	48.92594	-1435.9375	-1281.93079	40.36013	-1381.39575	-1507.83118	1707.9314	-1402.28479	NaN	NaN	NaN	NaN	NaN	NaN	NaN	NaN	NaN	NaN	NaN	NaN
5	0.04	-1395.83057	1675.53296	-1465.11475	-1395.18494	1658.53052	-1334.07166	-1527.86304	1618.16553	-1467.04932	-1526.10999	1606.94519	-1338.9989	-1525.7002	1457.4552	-1408.98096	-1554.05103	1128.60486	-1405.73291	-1413.78247	1383.65552	-1418.0592	-1370.56763	1210.47083	-1430.08447	-1588.91345	1284.54651	-1327.10901	-1489.92395	1412.97974	-1573.3855	-1494.51025	1211.37842	-1643.94653	-1490.03247	1099.37415	-1657.51819	-1407.09741	978.9574	-1690.74341	-1287.80786	921.51166	-1666.22278	-1339.77356	879.25726	-1689.41248	-1260.47205	838.91302	-1703.76563	-1447.64819	1413.01062	-1252.59143	-1481.78076	1213.75269	-1164.97461	-1474.39172	1091.62585	-1154.09521	-1454.70935	972.89069	-1138.1825	-1390.04907	836.875	-1173.52319	-1443.07007	835.61749	-1130.34033	-1403.32654	760.69769	-1131.99927	-1382.2345	972.48358	-1527.63757	-1366.56519	978.38763	-1308.6311	-1539.57629	993.32458	-1489.1001	-1520.38086	998.61469	-1321.67188	-1417.25562	651.2572	-1586.77527	-1390.21094	489.82877	-1573.77661	-1576.2948	329.88251	-1554.28638	-1702.96069	218.48624	-1508.47729	-1733.40344	238.33862	-1458.31152	-1645.60217	83.03626	-1512.43372	-1396.54114	639.15033	-1265.35425	-1381.41736	516.7467	-1300.1189	-1423.85303	251.75299	-1324.45581	-1434.01367	71.85457	-1386.80188	-1469.87292	48.98705	-1436.00537	-1281.90918	40.21396	-1381.33899	-1496.71582	1708.80835	-1403.60364	NaN	NaN	NaN	NaN	NaN	NaN	NaN	NaN	NaN	NaN	NaN	NaN
6	0.05	-1384.59302	1676.06299	-1466.27527	-1384.11829	1659.27747	-1335.28101	-1516.66809	1618.83984	-1468.2865	-1515.03589	1607.76636	-1340.17188	-1514.67065	1458.17993	-1409.88281	-1542.90027	1129.33276	-1406.32605	-1402.83118	1384.33313	-1418.92529	-1359.65479	1211.16443	-1430.7356	-1578.07397	1285.49573	-1327.90735	-1478.94421	1413.62427	-1574.29333	-1484.323	1211.85376	-1644.41223	-1481.25977	1099.60962	-1657.2572	-1401.79749	976.43085	-1690.0177	-1284.56287	914.83264	-1665.22522	-1337.96912	874.39307	-1688.43054	-1260.13184	831.30084	-1702.7052	-1436.82336	1413.8988	-1253.52393	-1469.68774	1214.56567	-1165.72827	-1461.07385	1092.59448	-1154.58325	-1438.7843	974.37836	-1138.75659	-1370.78137	840.34131	-1174.62927	-1423.57373	837.51801	-1131.25684	-1381.85693	763.76263	-1133.27502	-1370.61462	973.76654	-1527.88391	-1356.02124	979.3089	-1308.8606	-1528.1864	994.23773	-1490.26062	-1509.78406	999.48944	-1322.58313	-1399.4281	652.90137	-1586.68945	-1368.72717	492.20905	-1572.67468	-1551.34082	328.01398	-1555.84705	-1676.16504	213.97034	-1511.55164	-1708.38391	232.64185	-1461.71777	-1613.09912	81.26125	-1514.88135	-1389.4729	639.22052	-1265.97473	-1376.45837	516.51501	-1300.08386	-1422.13562	251.85527	-1324.42395	-1433.94678	71.93598	-1386.92444	-1469.92175	49.09493	-1436.06555	-1281.86658	40.04637	-1381.17273	-1485.55273	1709.54126	-1404.98718	NaN	NaN	NaN	NaN	NaN	NaN	NaN	NaN	NaN	NaN	NaN	NaN
7	0.06	-1373.34094	1676.5116	-1467.47607	-1372.97876	1659.9032	-1336.43237	-1505.50891	1619.43054	-1469.50403	-1504.0509	1608.63098	-1341.45728	-1503.71606	1458.74634	-1410.77051	-1531.84998	1129.99878	-1406.97241	-1391.9248	1384.87683	-1419.75903	-1348.78491	1211.74109	-1431.32813	-1567.17273	1286.29089	-1328.60083	-1468.02783	1414.14331	-1575.18762	-1474.24084	1212.28638	-1644.89258	-1472.52979	1099.85681	-1657.12415	-1396.83179	973.89679	-1689.31104	-1281.8302	907.99084	-1664.23486	-1336.70459	869.57477	-1687.42615	-1260.57703	823.57666	-1701.66248	-1426.00464	1414.65405	-1254.42468	-1457.79199	1215.27148	-1166.46716	-1447.89929	1093.41052	-1155.0835	-1422.8175	975.64783	-1139.52979	-1351.88391	843.5368	-1175.43274	-1403.98169	839.56372	-1132.15674	-1360.42737	766.83453	-1134.32312	-1358.90479	974.79498	-1528.06213	-1345.73462	979.7381	-1309.23853	-1516.73071	995.05768	-1491.47095	-1499.25403	1000.26312	-1323.64648	-1382.06653	654.37872	-1586.573	-1347.78394	494.52838	-1571.51794	-1526.05823	325.647	-1556.87012	-1648.75488	208.61362	-1514.73706	-1682.52332	225.59459	-1465.16943	-1579.93127	79.59613	-1518.08398	-1382.44751	639.38422	-1266.56226	-1371.17444	516.23883	-1300.11829	-1420.3136	252.1069	-1324.40881	-1434.0166	72.20028	-1386.58765	-1469.95032	49.29396	-1436.07471	-1281.81226	39.89166	-1380.97107	-1474.32544	1710.18115	-1406.37256	NaN	NaN	NaN	NaN	NaN	NaN	NaN	NaN	NaN	NaN	NaN	NaN
